<svg xmlns="http://www.w3.org/2000/svg" xmlns:xlink="http://www.w3.org/1999/xlink" xmlns:sketch="http://www.bohemiancoding.com/sketch/ns" width="125px" height="40px" viewBox="0 0 125 40" version="1.1">
  <path class="logo" d="M17.93 12.3199011C17.93 12.8399037 17.8650006 13.3598985 17.735 13.8799011 17.6049993 14.3999037 17.3900015 14.874899 17.09 15.3049011 16.7899985 15.7349033 16.4000024 16.1148995 15.92 16.4449011 15.4399976 16.7749028 14.8600034 17.0199003 14.18 17.1799011L14.18 17.3599011C14.780003 17.4599016 15.3499973 17.6298999 15.89 17.8699011 16.4300027 18.1099023 16.899998 18.439899 17.3 18.8599011 17.700002 19.2799032 18.0149988 19.7898981 18.245 20.3899011 18.4750011 20.9899041 18.59 21.699897 18.59 22.5199011 18.59 23.5999065 18.3600023 24.5348972 17.9 25.3249011 17.4399977 26.1149051 16.8250038 26.7598986 16.055 27.2599011 15.2849961 27.7599036 14.4100049 28.1298999 13.43 28.3699011 12.4499951 28.6099023 11.4400052 28.7299011 10.4 28.7299011L9.095 28.7299011C8.56499735 28.7299011 7.99500305 28.7149013 7.385 28.6849011 6.77499695 28.654901 6.15500315 28.6099014 5.525 28.5499011 4.89499685 28.4899008 4.3200026 28.3999017 3.8 28.2799011L3.8 7.57990112C4.1800019 7.51990082 4.61499755 7.45990142 5.105 7.39990112 5.59500245 7.33990082 6.1199972 7.28990132 6.68 7.24990112 7.2400028 7.20990092 7.81499705 7.17990122 8.405 7.15990112 8.99500295 7.13990102 9.5799971 7.12990112 10.16 7.12990112 11.1400049 7.12990112 12.0949953 7.20490037 13.025 7.35490112 13.9550046 7.50490187 14.7849963 7.76989922 15.515 8.14990112 16.2450036 8.52990302 16.8299978 9.05989772 17.27 9.73990112 17.7100022 10.4199045 17.93 11.2798959 17.93 12.3199011L17.93 12.3199011ZM10.43 25.3399011C10.9300025 25.3399011 11.4149976 25.2799017 11.885 25.1599011 12.3550023 25.0399005 12.7699982 24.8549024 13.13 24.6049011 13.4900018 24.3548999 13.7799989 24.039903 14 23.6599011 14.2200011 23.2798992 14.33 22.8299037 14.33 22.3099011 14.33 21.6498978 14.2000013 21.129903 13.94 20.7499011 13.6799987 20.3698992 13.3400021 20.0749022 12.92 19.8649011 12.4999979 19.6549001 12.0300026 19.5199014 11.51 19.4599011 10.9899974 19.3999008 10.4700026 19.3699011 9.95 19.3699011L7.76 19.3699011 7.76 25.1599011C7.8600005 25.1999013 8.0199989 25.229901 8.24 25.2499011 8.4600011 25.2699012 8.69499875 25.2849011 8.945 25.2949011 9.19500125 25.3049012 9.45499865 25.3149011 9.725 25.3249011 9.99500135 25.3349012 10.229999 25.3399011 10.43 25.3399011L10.43 25.3399011ZM9.08 16.2499011C9.3600014 16.2499011 9.68499815 16.2399012 10.055 16.2199011 10.4250018 16.199901 10.7299988 16.1699013 10.97 16.1299011 11.7300038 15.8898999 12.3849972 15.5299035 12.935 15.0499011 13.4850027 14.5698987 13.76 13.939905 13.76 13.1599011 13.76 12.6398985 13.660001 12.2099028 13.46 11.8699011 13.259999 11.5298994 12.9950016 11.2599021 12.665 11.0599011 12.3349983 10.8599001 11.9600021 10.7199015 11.54 10.6399011 11.1199979 10.5599007 10.6800023 10.5199011 10.22 10.5199011 9.6999974 10.5199011 9.2200022 10.529901 8.78 10.5499011 8.3399978 10.5699012 8.0000012 10.5999009 7.76 10.6399011L7.76 16.2499011 9.08 16.2499011ZM26.9 21.8599011L27.44 24.1999011 27.62 24.1999011 28.01 21.8299011 30.29 13.4299011 34.31 13.4299011 29.75 26.9599011C29.3699981 28.0799067 29.0050017 29.1048965 28.655 30.0349011 28.3049982 30.9649058 27.9200021 31.7698977 27.5 32.4499011 27.0799979 33.1299045 26.6150025 33.6548993 26.105 34.0249011 25.5949974 34.394903 24.9900035 34.5799011 24.29 34.5799011 23.2499948 34.5799011 22.4200031 34.4099028 21.8 34.0699011L22.52 30.9499011C22.8200015 31.0699017 23.1199985 31.1299011 23.42 31.1299011 23.8800023 31.1299011 24.3249978 30.9349031 24.755 30.5449011 25.1850021 30.1548992 25.5099989 29.4499062 25.73 28.4299011L19.46 13.4299011 24.14 13.4299011 26.9 21.8599011ZM33.71 13.4299011L35.78 13.4299011 35.78 10.6099011 39.68 9.49990112 39.68 13.4299011 43.34 13.4299011 43.34 16.7299011 39.68 16.7299011 39.68 22.4899011C39.68 23.5299063 39.7849989 24.2748989 39.995 24.7249011 40.205001 25.1749034 40.5999971 25.3999011 41.18 25.3999011 41.580002 25.3999011 41.9249985 25.3599015 42.215 25.2799011 42.5050014 25.1999007 42.8299982 25.0799019 43.19 24.9199011L43.88 27.9199011C43.3399973 28.1799024 42.7100036 28.3999002 41.99 28.5799011 41.2699964 28.759902 40.5400037 28.8499011 39.8 28.8499011 38.4199931 28.8499011 37.4050032 28.4949047 36.755 27.7849011 36.1049967 27.0748976 35.78 25.9099092 35.78 24.2899011L35.78 16.7299011 33.71 16.7299011 33.71 13.4299011ZM57.59 27.1399011C56.989997 27.6199035 56.1750051 28.0248995 55.145 28.3549011 54.1149948 28.6849028 53.0200058 28.8499011 51.86 28.8499011 49.4399879 28.8499011 47.6700056 28.1449082 46.55 26.7349011 45.4299944 25.3248941 44.87 23.3899134 44.87 20.9299011 44.87 18.2898879 45.4999937 16.3099077 46.76 14.9899011 48.0200063 13.6698945 49.7899886 13.0099011 52.07 13.0099011 52.8300038 13.0099011 53.5699964 13.1099001 54.29 13.3099011 55.0100036 13.5099021 55.6499972 13.8398988 56.21 14.2999011 56.7700028 14.7599034 57.2199983 15.3798972 57.56 16.1599011 57.9000017 16.939905 58.07 17.9098953 58.07 19.0699011 58.07 19.4899032 58.0450002 19.9398987 57.995 20.4199011 57.9449997 20.8999035 57.8700005 21.3998985 57.77 21.9199011L48.77 21.9199011C48.8300003 23.1799074 49.154997 24.1298979 49.745 24.7699011 50.3350029 25.4099043 51.2899934 25.7299011 52.61 25.7299011 53.4300041 25.7299011 54.1649967 25.6049024 54.815 25.3549011 55.4650032 25.1048999 55.9599983 24.8499024 56.3 24.5899011L57.59 27.1399011ZM52.01 16.1299011C50.9899949 16.1299011 50.2350024 16.4348981 49.745 17.0449011 49.2549975 17.6549042 48.9600005 18.469896 48.86 19.4899011L54.44 19.4899011C54.5200004 18.4098957 54.355002 17.579904 53.945 16.9999011 53.5349979 16.4198982 52.8900044 16.1299011 52.01 16.1299011L52.01 16.1299011ZM64.85 23.3899011C64.85 24.0899046 64.9399991 24.5998995 65.12 24.9199011 65.3000009 25.2399027 65.589998 25.3999011 65.99 25.3999011 66.2300012 25.3999011 66.4649988 25.3799013 66.695 25.3399011 66.9250011 25.2999009 67.2099983 25.2099018 67.55 25.0699011L67.97 28.1299011C67.6499984 28.2899019 67.1600033 28.4499003 66.5 28.6099011 65.8399967 28.7699019 65.1600035 28.8499011 64.46 28.8499011 63.3199943 28.8499011 62.450003 28.5849038 61.85 28.0549011 61.249997 27.5248985 60.95 26.6499072 60.95 25.4299011L60.95 7.42990112 64.85 7.42990112 64.85 23.3899011ZM70.01 13.4299011L73.91 13.4299011 73.91 28.4299011 70.01 28.4299011 70.01 13.4299011ZM69.44 9.19990112C69.44 8.61989822 69.6549978 8.12490317 70.085 7.71490112 70.5150021 7.30489907 71.1099962 7.09990112 71.87 7.09990112 72.6300038 7.09990112 73.2449976 7.30489907 73.715 7.71490112 74.1850023 8.12490317 74.42 8.61989822 74.42 9.19990112 74.42 9.77990402 74.1850023 10.2648992 73.715 10.6549011 73.2449976 11.0449031 72.6300038 11.2399011 71.87 11.2399011 71.1099962 11.2399011 70.5150021 11.0449031 70.085 10.6549011 69.6549978 10.2648992 69.44 9.77990402 69.44 9.19990112L69.44 9.19990112ZM86.9 28.4299011L86.9 19.9099011C86.9 18.689895 86.7250017 17.8099038 86.375 17.2699011 86.0249982 16.7298984 85.4300042 16.4599011 84.59 16.4599011 83.8499963 16.4599011 83.2250025 16.674899 82.715 17.1049011 82.2049974 17.5349033 81.8400011 18.0698979 81.62 18.7099011L81.62 28.4299011 77.72 28.4299011 77.72 13.4299011 80.81 13.4299011 81.26 15.4099011 81.38 15.4099011C81.8400023 14.7698979 82.4499962 14.2099035 83.21 13.7299011 83.9700038 13.2498987 84.949994 13.0099011 86.15 13.0099011 86.8900037 13.0099011 87.5499971 13.1099001 88.13 13.3099011 88.7100029 13.5099021 89.199998 13.8398988 89.6 14.2999011 90.000002 14.7599034 90.299999 15.3848972 90.5 16.1749011 90.700001 16.9649051 90.8 17.9398953 90.8 19.0999011L90.8 28.4299011 86.9 28.4299011ZM106.76 28.4299011C106.76 30.609912 106.170006 32.214896 104.99 33.2449011 103.809994 34.2749063 102.160011 34.7899011 100.04 34.7899011 98.5999928 34.7899011 97.4650041 34.6899021 96.635 34.4899011 95.8049958 34.2899001 95.1800021 34.0799022 94.76 33.8599011L95.57 30.7699011C96.0300023 30.949902 96.5649969 31.1299002 97.175 31.3099011 97.785003 31.489902 98.5399955 31.5799011 99.44 31.5799011 100.800007 31.5799011 101.724998 31.2849041 102.215 30.6949011 102.705002 30.1048982 102.95 29.2799064 102.95 28.2199011L102.95 27.2599011 102.83 27.2599011C102.129996 28.1999058 100.890009 28.6699011 99.11 28.6699011 97.1699903 28.6699011 95.7250047 28.0699071 94.775 26.8699011 93.8249952 25.6698951 93.35 23.7899139 93.35 21.2299011 93.35 18.5498877 93.9899936 16.519908 95.27 15.1399011 96.5500064 13.7598942 98.4099878 13.0699011 100.85 13.0699011 102.130006 13.0699011 103.274995 13.1599002 104.285 13.3399011 105.295005 13.519902 106.119997 13.7298999 106.76 13.9699011L106.76 28.4299011ZM100.16 25.5499011C100.920004 25.5499011 101.504998 25.3799028 101.915 25.0399011 102.325002 24.6998994 102.639999 24.1899045 102.86 23.5099011L102.86 16.7599011C102.239997 16.4998998 101.470005 16.3699011 100.55 16.3699011 99.549995 16.3699011 98.7700028 16.7448974 98.21 17.4949011 97.6499972 18.2449049 97.37 19.4398929 97.37 21.0799011 97.37 22.5399084 97.6099976 23.6498973 98.09 24.4099011 98.5700024 25.1699049 99.2599955 25.5499011 100.16 25.5499011L100.16 25.5499011ZM109.43 20.9299011C109.43 18.3898884 110.049994 16.434908 111.29 15.0649011 112.530006 13.6948943 114.269989 13.0099011 116.51 13.0099011 117.710006 13.0099011 118.749996 13.1998992 119.63 13.5799011 120.510004 13.959903 121.239997 14.4948977 121.82 15.1849011 122.400003 15.8749046 122.834999 16.7098962 123.125 17.6899011 123.415001 18.669906 123.56 19.7498952 123.56 20.9299011 123.56 23.4699138 122.945006 25.4248943 121.715 26.7949011 120.484994 28.164908 118.750011 28.8499011 116.51 28.8499011 115.309994 28.8499011 114.270004 28.659903 113.39 28.2799011 112.509996 27.8998992 111.775003 27.3649046 111.185 26.6749011 110.594997 25.9848977 110.155001 25.149906 109.865 24.1699011 109.574999 23.1898962 109.43 22.109907 109.43 20.9299011L109.43 20.9299011ZM113.45 20.9299011C113.45 21.5899044 113.509999 22.1998983 113.63 22.7599011 113.750001 23.3199039 113.929999 23.809899 114.17 24.2299011 114.410001 24.6499032 114.724998 24.9749 115.115 25.2049011 115.505002 25.4349023 115.969997 25.5499011 116.51 25.5499011 117.530005 25.5499011 118.289997 25.1799048 118.79 24.4399011 119.290002 23.6998974 119.54 22.5299091 119.54 20.9299011 119.54 19.5498942 119.310002 18.4349054 118.85 17.5849011 118.389998 16.7348969 117.610005 16.3099011 116.51 16.3099011 115.549995 16.3099011 114.800003 16.6698975 114.26 17.3899011 113.719997 18.1099047 113.45 19.2898929 113.45 20.9299011L113.45 20.9299011Z" id="Bytelingo" fill="#000000" sketch:type="MSShapeGroup"/>
</svg>
